<?xml version="1.0" encoding="utf-8"?>
<!-- Generator: Adobe Illustrator 25.1.0, SVG Export Plug-In . SVG Version: 6.00 Build 0)  -->
<svg version="1.1" id="Слой_1" xmlns="http://www.w3.org/2000/svg" xmlns:xlink="http://www.w3.org/1999/xlink" x="0px" y="0px"
	 viewBox="0 0 552.9 950.7" enable-background="new 0 0 552.9 950.7" xml:space="preserve">
<path opacity="0.5" fill="#D4D4D4" d="M408.2,239.2c-0.2-0.8-0.5-1.6-0.7-2.5c-1.4,0.4-0.7,1.8-1.3,2.5c-0.1-0.1-0.3-0.2-0.3-0.3
	c-0.5-1.2,0.8-3.4-1.6-3.5c-2.2-0.1-1.8,2-2.1,3.4c-1.6,7.8-3.8,15.3-6.6,22.7c-0.1,0.4-0.2,0.8-1,0.8c0.5-3.8,0.6-7.5,0.2-12
	c-9,13.2-20,24-28.8,36.7c2.7-10.7,4.4-21.6,5-33.5c-3.2,7.6-6,14.3-8.8,21c-0.2-0.1-0.3-0.1-0.5-0.2c0.9-4.3,1.8-8.7,2.8-13
	c1-4.1,1-8.3,1.6-12.5c0-0.4,0.1-0.8,0-1.2c-0.3-1.1-0.4-2.8-1.8-2.7c-1.5,0.1-0.8,1.8-0.8,2.7c0.1,8-0.9,15.7-3.9,23.2
	c-3,7.4-7.7,13.5-13.9,18.4c-5.9,4.7-14.8,4.3-22.1-0.7c-9.9-6.7-13.6-16.9-15.8-27.9c-1.2-5.9-0.2-11.7,2.3-18
	c-8.6,2.1-15.8,5.8-22.7,10.5c3.6-5.8,9.2-10,13.2-15.6c-1.6-1.1-3.5,0-5.4-1.4c8.1-2.1,16-3.3,24-4.3c-11-1.9-22.3-2.7-32.7-7.9
	c1,3.9,3.9,6.3,5.9,9.4c-4.5-0.6-12-7.4-23.3-21.1c3.2,9.2,7,17.4,9.7,26.1c-2.8-4.2-5.5-8.5-8.6-12.5c-7.5-10-11.7-21.6-16.2-33
	c-6.1-15.3-11.8-30.8-15.9-46.8c-1.8-7.2-3.2-14.4-4.5-21.7c-4.4,19.3-4.6,38.7-2.5,58.2c2.1,19.5,6.2,38.5,16.2,56.2
	c-4.2-2.9-14.3-14.8-15.9-19c3.7,4.3,7,8.1,10.3,11.9c0.1-0.1,0.3-0.2,0.4-0.3c-1-2-2-4-3-6c-4.9-9.9-6.8-20.6-8.7-31.4
	c-1.8-10.5-2.7-21-2.9-31.6c-0.2-13,0.8-26,4.4-38.6c1.6-5.7,1.1-11.3,0.6-16.9c-0.2-2.6-0.3-5.1,0-7.7
	c3.6,45.5,19.3,87.2,39.8,127.3c-3.6-11.9-8.6-23.4-11-35.7c4,15.3,13.8,26.6,24.7,37.4c0.3-0.4,0.4-0.6,0.4-0.7
	c-0.2-1.5-2.3-3-1.1-4.3c0.9-1,2.8,0.4,4.2,0.8c10.5,2.9,21.3,4.3,32.1,5.8c3.4,0.5,6.5,1.7,10,1.9c2.8,0.1,3.8-0.8,3.9-3.7
	c0.7-22.6-2.7-44.8-7.3-66.9c-1.3-6.1-3-12.1-4.5-18.2c8.1,22.8,19.2,44.7,20.3,69.5c0.5-6.6-0.4-13-1.1-19.5
	c-1.8-15.8-4.7-31.4-9.3-46.7c-0.2-0.8-1-1.9,0.3-2.3c1.1-0.3,1.4,0.9,1.8,1.6c8.3,13.4,13.7,27.9,18.4,42.9
	c4.2,13.6,7.3,27.4,9.5,41.4c0.2,1.1,0.4,2.2,0.6,3.2c0.2,1.2,0.9,1.8,2.1,1.8c1.2,0,1.3-1,1.4-1.9c0.8-6,1.6-12.1,1.3-18.2
	c0-1.1,0-2.2,0.2-3.3c5.8,22.7,6.6,45.5,0.4,68.6c5-6.5,9.9-13,15-19.4c5.1-6.4,10.3-12.8,12.7-20.8c-0.2,3.1-1.1,6.1,0.4,9.2
	c4.8-21.8,8-43.5,0.2-65.4c4.5,10.1,8,20.5,8.2,32.4c1.5-9.4-1.1-38.9-7.1-58.7c-5.7-18.8-12.8-36.9-23-53.7
	c15.9,23,25.4,48.5,30.4,76.4c3.6-3.3,6.3-6.7,8.8-10.3c5.9-8.3,11-17.1,16.1-26c1.1-2,1.8-4.2,2.6-6.3c0.8-2,2-2.2,3.3-0.8
	c1.8,1.9,3.1,4.1,1.8,6.8c-2.6,5.4-3.1,10.8-2,16.8c0.9,5.3,0.1,10.9-0.5,16.2c0.7,0.5,1,0.1,1.3-0.1c1.1-1.2,2-3,4.1-1.4
	c2.2,1.6,2.8,3.9,1.5,6c-1.6,2.3-3.1,4.7-5,6.7c-4.3,4.5-6.5,10-7.9,15.9c-0.3,1.1-0.7,2.1-1.2,3c0-3.4,1.8-6.5,2.3-10.7
	c-4.3,4.4-8.3,8-12.6,11.3c-1.5,1.2-2.8,2.7-4.4,3.6c-4.2,2.6-6,6.2-6,11.1c0,3.4-0.7,6.7-1,10.1c-0.1,0.9-0.5,2.1,0.6,2.4
	c1.3,0.3,1.1-1.2,1.3-1.9c1.6-6.5,4.8-12.1,9.4-16.8c4.1-4.3,12.7-5.8,18.2-3.4c2,0.9,3.5,2.2,4.5,4.2c4.3,8.4,5.5,16.9,2.5,26.1
	c-3.5,10.8-8.1,20.8-15.8,29.3c-5.1,5.6-9.4,11.9-13.9,18c-2.4,3.3-4.9,6.3-9.6,6.2c-1.2,0-2.3,0.7-3,1.8
	c-4.4,7.7-9.2,15.2-13.1,23.2c-1.9,3.9-2.4,8.6-3.3,13c-1.9,8.8-3.2,17.7-4.2,26.6c-0.1,1.1,0,2.2,0.2,3.3
	c2.7-17.7,9.4-34.1,16-50.5c-4.2,12.6-8.1,25.2-11.1,38.1c-2.9,13-4.9,26.1-6.1,39.3c1.3-6.7,2.2-13.4,3.9-20
	c1.6-6.6,3.9-13.1,6.2-19.6c-3,13.5-2.4,27-0.5,40.9c1.3-2.2,0.9-4.4,2.1-7.1c0.9,4.1,1.6,7.5,2.4,10.8c0.1,0.5,0.3,1,0.6,1.3
	c0.5,0.4,0.8-0.3,1.1-0.6c6.3-7.5,14.4-12.9,22.9-17.6c5.7-3.2,11.4-6.3,17.2-9.2c6-3,10-7.2,10.2-14.3c0-0.4,0.1-0.7,0.4-1.1
	c0.4,4.4,0.6,8.9,0.1,13.3c5.7-19.8,11.5-39.6,10-60.6c1.2,3.4,1,7.1,1.6,10.6c0.6,3.8,0.7,7.6,0.6,11.4c-0.2,3.7-0.4,7.4-0.5,11.1
	c-0.1,3.7-0.1,7.4-0.1,11.2c0.4-1.4,0.7-2.9,1.1-4.3c3.5-16,6.6-32.1,8.3-48.4c0.5-5.3,1-10.5,1.3-15.8c0.8-15.5,0.9-31,0.6-46.4
	c-0.7-36.1-8.4-70.7-21.9-104.1c-3.9-9.7-8.3-19.1-13.4-28.1c-0.3-0.6-0.6-1.2-0.3-2.2c2.5,4.4,5.2,8.7,7.6,13.2
	c14.3,26.4,22.2,54.9,27,84.3c2.2,13.3,2.5,26.8,3.2,40.3c0.6,12.9-0.1,25.8-0.4,38.6c-0.5,17.9-3.1,35.6-6.6,53.2
	c-0.5,2.5,0.3,3.7,2.4,4.6c3.8,1.6,7.5,3.3,10.3,6.8c1-1.5-0.1-2.9,0.7-4.3c0.7,3,1.3,6,2,9c4.1-19.4,3.6-38.9,2.2-58.6
	c4.8,23.5,2.7,53.4-4.1,67.8c0.6-2.4-0.1-4.7,0-7.1c0.1-4.9-2.7-7.7-6.4-10c-7.4-4.7-7.7-4.7-9.4,3.7c-2.4,12.1-6.5,23.6-11.4,35
	c3-11.2,4.5-22.6,5-34.5c-1.1,0.6-1.1,1.4-1.2,2.1c-2.5,12.9-6.9,25-14,36c0.9-5.3,2.2-10.6,3.7-16.3c-9.5,6.3-19.8,10.4-29,16.3
	c-1.3,0.9-2.7,1.7-4,2.6c-0.6,0.4-1.7,0.7-1.5,1.7c0.2,1,1.2,0.8,2,1c2.4,0.5,4.9,1,7.3,1.6c5.5,1.4,10.2,4.1,13.5,8.8
	c4.9,7,11.9,11.1,19.7,14.1c10.4,4,20.7,8.5,31.4,11.7c1,0.3,2.3,0.7,2.9,1.4c2.4,2.9,5.6,3.6,9,4.4c5.7,1.3,9.9,5,13.1,9.8
	c11.4,17.2,18.2,35.9,19.7,56.5c1.2,15.4-0.2,30.5-3.4,45.5c-0.5,2.2,0.3,3.9,1.2,5.7c5.3,10.6,8.1,21.7,7.4,33.6
	c-0.5,9.1-1.8,18.1-4.4,26.9c-2.1,7.4-2.5,14.9-2.3,22.5c0.6,17.1,0,34.2-0.9,51.2c-0.3,6.2-0.4,12.4-0.7,18.6
	c-0.4,10.6-1,21.1-2.2,31.7c-0.7,5.9,0.4,11.8,1.3,17.6c2.7,17.4,3.2,34.8,2.5,52.3c-0.3,6.3,0,12.6-0.9,18.8
	c-0.5,3.7,0.7,7.1,1.7,10.6c7.9,28.6,14.2,57.6,20.3,86.7c2.2,10.3,4.3,20.5,5.7,30.9c0.1,0.9,0.8,2.3-0.5,2.5
	c-1.3,0.3-1.4-1.2-1.5-2.1c-4.2-25.5-9.9-50.6-15.6-75.7c-4.6-20.6-10.2-40.9-15.8-61.2c-2.5-8.9-3.1-18.1-4.4-27.2
	c2.4,10.4,4.7,20.7,7.7,31.1c0.8-0.8,0.5-1.6,0.5-2.3c0.9-14.5,1.5-28.9,0.4-43.4c-0.6-8.6-1.9-17.1-2.9-25.6
	c-0.8-6.6-0.9-13.2,0-19.7c1.3-8.6,1.2-17.3,1.6-26c0.8-17.8,1.5-35.5,1.8-53.3c0.1-6.7-0.4-13.4-0.5-20.1c-0.1-6,0.7-12,2.3-17.8
	c3.1-11.3,4.8-22.9,4.3-34.6c-0.4-8.1-2.8-15.7-6-23.1c-0.3-0.6-0.4-1.4-1.6-1.6c-4,15.2-8,30.4-12,45.6c-0.2,0-0.4-0.1-0.6-0.1
	c0.3-1.2,0.5-2.4,0.8-3.5c4.6-18.4,9.4-36.8,12.5-55.5c3-18.1,3.6-36.2-0.2-54.2c-3.1-14.7-9.2-28.3-17.7-40.7
	c-4.9-7.1-14.2-11.8-24.7-6.3c-9.3,4.8-16.8,11.1-22.6,19.9c-12.6,19.2-25.1,38.5-39.7,56.3c-6.4,7.7-14,13.9-22.3,19.3
	c-13,8.4-26.2,16.5-40.5,22.7c-9.6,4.2-19.9,5.9-30,8c-18.4,3.7-37,6.6-55.4,9.8c-4.3,0.7-8.5,2.3-12.7,3.7c-1.2,0.4-2,1.1-2.6,2.3
	c-2.8,5.4-6.8,9.6-12.4,11.9c-1.2,0.5-1.6,1.4-1.6,2.6c-0.2,4.2-0.4,8.4-0.5,12.6c-0.5,16.1-1,32.1-3.6,48
	c-1.7,10.1-5,19.8-9.5,28.9c-4.1,8.3-4,16.5-2.9,25.3c2.8,20.7,5.9,41.3,10.4,61.7c0.1,0.4,0.1,0.8-0.2,1.2
	c-5.6-23.4-11-46.9-13.8-71.1c-11.7,31.3-23.8,62.3-28.4,95.7c-0.7-0.3-0.5-1.1-0.5-1.8c-0.5-14.9-3.8-29.2-7.7-43.5
	c-4.3-15.8-7.9-31.8-9.9-48.1c-0.1-0.9-0.4-1.7-0.7-3.4c-5.1,14-9.9,27.1-14.7,40.3c-0.2-0.1-0.4-0.1-0.6-0.2
	c1-3.5,2.1-6.9,3.1-10.4c3.3-11,6.7-22,10.9-32.7c0.7-1.7,1.2-3.4,0.5-5.5c-1.7,1.8-2.5,4-3.5,6c-7,13.9-17.8,24.7-29,35.2
	c-9.9,9.3-20.1,18.2-30.4,27.1c-1.9,1.6-3.3,3.7-4.8,5.7c0.8-4.9,1.9-9.6,2.8-14.4c4-21.1,7.4-42.3,13-63.1
	c4.6-17,9.4-33.9,16.4-50.1c4.1-9.6,10.2-16.9,18.2-23.5c16.2-13.3,32.9-25.7,51.4-35.6c1.5-0.8,5.1-7.8,4.8-9.3
	c-0.2-1.3-1.3-1.1-2.1-1.2c-3.2-0.6-6.5-1.1-9.7-1.9c-6.8-1.8-12.8-5-17.7-10.1c-1.9-2-4-2.7-6.9-2.5c-5.2,0.4-10.4,0.3-15.6,0.2
	c-2.3,0-4.5,0.4-6.7,1.3c-22.8,9.3-44.1,21.3-63.9,35.7c-2.8,2.1-5.4,4.4-8.3,6.4c-6.4,4.4-9.4,10.7-9.9,18.3
	c-0.4,6.5-1,12.9-1.2,19.4c-0.3,12.4,2.4,24.4,6.5,36.1c3.4,9.7,7,19.4,12.8,28c2.8,4.2,3.7,8,2.3,12.7c-2.4,8.6,1.3,16.3,3.9,24.1
	c0.6,1.7,1.2,3.4,1.2,5.3c-1-2.2-1.9-4.5-2.9-6.8c-1.5,1.2-1,2.4-1.1,3.6c-0.3,12.3-0.3,24.6-0.8,36.8c-0.6,14.1-2,28.1-2.6,42.1
	c-0.3,7.4,0,14.8,0.5,22.1c0.8,12.3,1.9,24.7,3.4,37c1,8.1,2.1,16.2,3.2,24.3c0.2,1.2,0.3,2.3-0.2,3.6c-0.9-5.1-1.8-10.3-2.7-15.4
	c-1.2,0.3-1.3,1.1-1.5,1.7c-4.7,14.4-11.1,28.3-14.7,43.1c-1.6,6.5-2.6,13.1-3.9,19.7c-0.2,0.9-0.1,2.4-1.4,2.3
	c-1.7-0.2-0.8-1.7-0.7-2.7c2.1-15.3,6.2-30.1,11.9-44.5c3.1-8,5.8-16.2,8.8-24.2c0.4-1.2,0.3-2.3,0.2-3.5
	c-3.6-21.7-5.4-43.6-5.1-65.6c0.1-9.8,1.7-19.5,2.1-29.3c0.2-5.5,0.4-11,0.5-16.5c0-2.5-1.7-1-2.5-0.7c-6.1,2.3-12.1,4.8-18.1,7.2
	c-2.8,1.1-5.7,1.9-8.5,2.9c-13.3,4.7-25.1,1-36.1-6.8c-3.7-2.6-5.8-6.6-7.1-10.9C12.6,738,7.4,719.7,2.5,701.4
	c-2.3-8.5-3.3-17.3-1.8-26.1c1.4-8.6,6.6-15.1,12-21.4c5.4-6.4,11.2-12.5,16.6-18.9c6.1-7.2,10.8-15.4,16.1-23.1
	c10.3-14.7,21.7-28.4,33.5-41.8c7.4-8.4,14.7-16.8,22.1-25.3c0.9-1.1,1.8-2.1,3-2.9c2.7-2.1,4.8-4.4,4.7-8.2
	c-0.1-2.6,1.6-4.5,4.1-5.4c3-1.1,4.8-3.3,6.1-6.2c2-4.8,4.3-9.5,6.2-14.3c4.2-10.6,11.8-18.9,18.7-27.7c2.4-3,5.5-4.5,9.3-4.6
	c3.9-0.1,6.1-1.7,7.3-5.8c3.8-12.6,10.6-23.7,18.8-33.8c6.1-7.6,13.9-11.5,23.9-9.9c0.7,0.1,1.4,0.3,2-0.1c5.3-4,11.8-3.3,17.8-4.1
	c9.3-1.2,18.6-2.4,28-2.6c1.5,0,2.9-0.6,4.1-1.7c10.7-9.6,22.5-17.6,35.8-23.1c2.5-1,2.8-2.6,2.9-4.9c0.1-2.3-0.6-3.7-2.8-4.6
	c-10.6-4.3-21.1-8.7-31.6-13c-2.9-1.2-5.8-0.2-8.5,0.4c-7,1.5-13.8,4.1-20.5,6.6c-2.5,0.9-3.6,2.8-2.9,5.5c0.6,2.2,1.3,4.3,1.3,6.7
	c-2.5-4.5-5-9.1-7.6-13.6c-0.1,5,0.8,9.6,2.3,14.2c-12.4-14.7-15.8-33-20.2-50.8c0.7,10.1,2.4,20.1,4.3,30c2,10,4,20,8.2,29.9
	c-3.1-0.8-4.4-3.1-6.8-4.3c-1.3,6.6-7.1,8.9-11.6,12.5c-1.2,1-2.6,1.9-3.9,2.8c-4.2,2.5-7.5,5.3-5,11c-5.6-4.5-11.2-8.7-13.2-15.9
	c-0.3,0.1-0.5,0.2-0.8,0.3c0.5,2.4,0.9,4.9,1.4,7.3c0.5,2.4,1.2,4.8,1.6,7.3c-4-7.7-8.9-14.8-11.2-23.4c-4.2-16.1-7.1-32.4-8.2-49
	c0-0.4-0.2-0.7-0.5-1c-2.4,23.5,1.5,46.4,6,69.2c-18.2-44.2-18.3-90-11.5-136.8c-1.8,5-3.7,9.5-5.2,14.2c-4.9,15.1-8,30.5-9.8,46.2
	c-1.7,14.7-1.5,29.3,1.3,43.8c0.8,4.1,2.1,8.1,3.2,12.2c-2.5-4.8-5.2-9.6-6.6-14.9c-3.4-13.7-3.4-27.5-1.8-41.4
	c2.1-17.9,6.5-35.4,11.9-52.5c0.7-2.2,1.1-4.2-0.9-6c-6-5.3-8.6-12.6-11.4-19.8c-2.1-5.3-4-10.6-6.1-15.9
	c0.3,11.4,2.9,22.4,6.2,33.2c-14.5-33.5-24.1-67.9-18.5-105.3c-3.3,7.4-7.7,39.6-7.8,56.1c-0.1,19-0.1,19,7.6,55.8
	c-2.2-5.3-4.4-10.5-6.5-15.8c-4.1-10.6-5.3-21.9-6.5-33.1c-0.9-9.2-0.8-18.4-0.7-27.5c0.5-29.3,5.8-57.5,16.6-84.8
	c6.4-16.1,13.3-31.9,22.9-46.4c15.6-23.6,35.1-43,59.7-57c18.4-10.4,38.4-16.8,59.3-20c3.7-0.6,7.5-1.2,11.2-1.8
	c22.8,0,45.6,0,68.3,0c8,1.7,16,3.6,24,5c23.1,4.1,42.7,15.3,60.8,29.6c31,24.5,53.9,55.3,71.3,90.5c10.7,21.7,18.8,44.3,23.7,68
	c3.6,17.4,2.3,34.7-0.6,52.1c-2,11.8-5.8,22.8-13.1,32.4c-1.9,2.5-3.2,5.4-5.2,7.9c1.6-4,3.2-8.1,4.9-12.1c5.5-12.8,7.3-26.2,8.1-40
	c2.7-45.1-11.5-85.4-34.1-123.4c-4.7-7.9-9.5-15.7-14.6-23.4c-1-1.6-2.2-3.1-3.6-4.4c2.1,4.8,4.3,9.6,6.4,14.3
	c11,24.2,17,49.8,21.4,75.9c2.1,12.7,3.1,25.5,3.7,38.4c0.6,13,0.7,26,0.2,38.9c-0.4,13.3-0.4,26.6-0.3,39.9
	c0.1,14,1.5,27.9,4.2,41.7c0.7,3.3,1.8,6.5,2.5,9.8c-3-6.2-5-12.6-6.1-19.4c-3.2-19.7-3.2-39.5-2.7-59.4c0.4-18.1,0.5-36.1-0.1-54.2
	c-0.8-22.8-4.7-45.1-9.9-67.2c-4.2-17.5-10.2-34.2-17.8-50.5c-1.4-3-2.7-6-3.9-9.1c-2-5.4-5-10.2-9.3-14.1c-1.2-1.1-2.6-1.9-3.5-3.2
	c1.4-0.6,1.7,0.2,2.3,0.7c9.5,8.6,17.4,18.3,24.2,29.2c10.8,17.4,21.3,35,28.8,54.2c10,25.8,16.1,52.3,14.9,80.1
	c-0.3,6.2-0.7,12.4-1.3,18.5c-0.6,6.2-1.8,12.2-3.4,18.3c0.5-1.3,1.2-2.5,1.5-3.8c3-10.5,4.8-21.2,6.1-32
	c2.5-20.8-1.8-40.7-7.9-60.4c-11.2-36.3-28.8-69.3-53-98.6c-18.1-21.9-39.4-40.2-64.7-53.4c-11-5.8-23.2-8-35.1-10.9
	c-22.3-5.5-44.9-6.3-67.6-5.3c-30.1,1.3-59.3,7.1-86.2,21.4c-16.7,8.9-31.2,20.8-43.9,34.9c-11.4,12.7-21.3,26.6-28.7,41.9
	c-12.3,25.5-21.9,51.9-25.7,80.1c-2.7,20.4-3.2,40.7-0.9,61.2c-1.6-28.3,4.9-55.3,13.6-82.4c0.1,0.9,0.2,1.5,0.2,2.1
	c-0.1,0.7-0.3,1.4-0.4,2.1c-0.9,13.3-3.1,26.6-2.5,40c0.8,16.1,3.7,31.7,8.6,47c0.1,0.3,0.3,0.7,0.8,0.9
	c-1.4-10.2-0.6-20.4-1.3-30.6c1.8,18.8,9.1,35.9,16.8,52.8c-0.5-2.4-1-4.9-1.4-7.2c0.4-0.5,0.7-0.2,0.8,0c1.6,3.5,4.3,6,7,8.8
	c3.8,4.1,8.3,6,13.7,6.6c5.1,0.5,10.1,1.2,14.4,4.3c0.7-0.8,0.1-1.3-0.1-1.7c-4.1-7.7-6.4-15.9-7.8-24.4
	c-1.6-10.1-3.9-20.2-5.4-30.4c-4.9-31.4-5.5-62.6,3.6-93.5c1.2-4,2.1-8.1,3.2-12.2c0-0.2,0.2-0.3,1-1.1c-4.6,17.5-7.4,34.5-8.7,51.7
	c-1.3,17.3,0.2,34.4,3,51.5c0-8.9,0-17.7,0-26.6c0.9,12.8,5.5,24.6,9.9,36.4c-1.6-5-1.5-10.2-1.9-15.4c-0.1-1-0.6-3.1,1.6-1.8
	c7.9,4.6,16.6,6.8,25,10c2.5,1,5,2.1,7.4,3.1c2.6,1.1,4.3,3.2,6.5,5.2c0.3-1.4-0.2-2.3-0.6-3.3c-3.6-9.4-4.9-19.1-4.9-29.1
	c-0.1-18.4,0.4-36.8,4.3-54.8c1.7-7.9,3.7-15.8,5.6-23.6c1.1-4.6,1.8-9.2,2.6-13.8c-1,13.3-1.7,26.6-1.7,39.9
	c0,13.5,1.3,26.9,3.1,40.3c1.9,13.3,7.1,25.8,10.1,39.2c-2.4-3.1-9-22.7-10.8-31.9c-2.2-11-3.5-22.1-4.2-33.2
	c-0.7-11.3-0.8-22.5,0.2-33.9c-0.5,2.7-1.1,5.4-1.5,8.1c-0.5,2.8-1,5.7-1.5,8.6c-2.7,15.7-3.8,31.5-4.1,47.4
	c-0.3,14.5,1.1,28.9,5.7,42.9c0.4,1.1,0.7,2.3,0.8,3.6c-1.6-2.8-3.7-4.9-6.2-6.8c-5.7-4.4-12.6-6-19.1-8.5c-5.3-2-10.9-3.4-15.3-7.4
	c-1.6-1.5-2-0.2-2,1.2c-0.1,3.9,1,7.7,1.6,11.6c0.5,3.6,1.4,7.2,1.8,11.1c-1.3-2.7-2.6-5.3-3.8-8c-1.3-2.7-2.4-5.5-3.7-8.2
	c-1.4-2.8-2-5.8-2.8-8.8c-0.3,3-0.1,5.9,0.9,8.8c3.7,10.1,8.2,19.7,13.8,28.9c0.7,1.2,1,3.4,2.7,3.1c1.8-0.4,2.7-2.3,3.2-4.1
	c1.1-4.2,7.8-10,12.2-10.4c7.2-0.6,13.9,0.7,20.1,4.5c7.2,4.3,13.5,9.6,18.6,16.3c0.6,0.9,1.6,1.9,1.6,2.8c-0.2,5.4,3,9.9,4.3,14.9
	c1,3.9,1,7.7,0.7,11.6c-0.5,5.6-6.4,9.3-11.9,7.8c-5.5-1.5-9.8-4.9-13.4-9.2c-4.3-5.1-8.2-10.6-11.8-16.2c-3.9-6.2-5.6-13.2-7-20.3
	c-0.2-0.9,0.1-2.3-1.1-2.5c-1-0.2-1.6,1-2.3,1.8c-3.2,3.9-4.5,8-1.9,13c2.2,4.1,3.7,8.6,5.3,13c-3.8-4.2-6.6-9-9.3-13.9
	c-0.7-1.3-1.4-2.7-2.6-3.7c-0.7-0.6-1.7-0.9-2.5-0.2c-0.7,0.6-0.1,1.3,0.2,1.9c8.6,17.4,13.3,36.2,19.9,54.3
	c2.7,7.5,6.2,14.5,10.6,21.1c5.1,7.8,12.7,12.3,20.5,16.6c15.8,8.6,32.7,14.8,49.1,22.2c5.8,2.6,10.5,2.4,16.1,0
	c17.4-7.4,34.6-15.3,49.6-26.9c12.4-9.6,24.2-19.9,34-32.3c5.6-7.1,9.4-15.3,13.8-23.1c1.4-2.5,3.2-4,6.1-4.1c2.1-0.1,3.9-1,5.1-2.7
	c7.8-10.9,17.2-20.6,24.2-32c4.8-7.8,7.9-16.4,8.9-25.6c0.7-6.1-1.6-11.8-4.4-17.1c-0.6-1.2-1.8-2-3.1-2.2
	c-5.6-1.1-11.4-1.6-15.7,3.1c-5,5.5-8.6,12-10.6,19.2C409,237.3,408.6,238.3,408.2,239.2z M82.7,581.9c-1.6,1.6-3.2,3.2-4.8,4.8
	c-22.6,22-43.4,45.8-64.3,69.4c-5.7,6.5-10.7,13.5-11.1,22.7c-0.3,7.2,0.3,14.4,2,21.4c4.4,18.2,10.5,35.8,15,54
	c0.7,2.9,2,5.7,3.8,8.1c4.7,6.3,11.7,8.4,18.7,10.5c4,1.2,8.2,1.8,12.4,0.7c11.8-3.1,23.1-7.8,34.3-12.5c1.9-0.8,1.8-2.4,1.8-4
	c0.3-10.9,0.5-21.8,0.8-32.6c0-1-0.1-2-0.5-2.9c-2.2-4.2-2-8.7-1.2-13.2c0.4-2.1,0.7-4.1,1.1-6.2c0.2-0.9,0.1-1.7-0.4-2.5
	c-10-14.9-16-31.5-20-48.8c-3.3-14.4-2.1-29-0.3-43.5c0.8-6.3,4-11,8.9-15c18.5-15.2,38.7-27.5,60.4-37.6c2.5-1.2,5-2.3,7.5-3.4
	c-3.5-0.2-6.7,0.8-10,1.4c5.5-2.1,10.9-4.6,16.8-5.2c12.3-1.1,24.5-0.2,36.8-1c12.7-0.8,24.5-4.5,35.8-10c2.2-1.1,3.2-2.8,2.9-5.3
	c-1.1-13.1-4.2-25.6-11-37c-2.4-4-5.4-7.5-9.8-9.5c-13.2-5.8-26.9-9.5-41.5-8.8c-5.6,0.3-11.1,1.6-16.6,2.5c-1.7,0.3-2.9,1.3-4,2.5
	c-5.4,6.1-10.4,12.4-14.7,19.2c-4.5,7.1-7.2,15.1-10.5,22.8c-1.5,3.4-3.6,6.2-7.3,7.5c-1.6,0.6-2.8,1.7-2.7,3.6
	c0.2,3.7-1.5,6.3-4.2,8.5c-1.2,1-2.4,2.1-3.5,3.3c-17.3,19.5-34.8,38.8-50.4,59.7c-3,4.1-5.9,8.3-8.8,12.5c0.2,0.2,0.4,0.3,0.6,0.5
	C56,604.8,68.9,592.9,82.7,581.9z M291.3,436.4c0-0.7-0.1-1.4,0-2.1c1-5.9,0.9-11.9,1.6-17.9c0.1-0.8,0.2-2-0.2-2.3
	c-0.9-0.7-1.6,0.5-2.2,1c-2.9,2.2-6,4-9.2,5.6c-2.3,1.2-4,2.8-5.2,5.1c-2.4,4.3-0.4,9,4.5,10.1c3.3,0.7,5.4,2.6,6.5,5.9
	c2.5,7.7,2.1,16.1,5.9,23.5c0.3,0.6,0.2,1.4,0.3,2.1c0.1,1.7,0,3.4,0.8,5c1.4,3,1.4,6.2,0.6,9.4c-0.5,1.8-0.4,3.4,0.2,5.2
	c1.1,3.6,2.4,7.3,0.4,11.1c-4.9,9.5-11.6,16.4-23.5,14.7c-0.5-0.1-1,0-1.5-0.1c-0.9-0.1-1.5,0.3-1.9,1.1c-1.8,4.4-5.6,6.6-9.6,8.6
	c-4.9,2.6-10.2,4.1-15.5,5.6c-1.9,0.5-2.7,1.5-3.1,3.5c-0.9,5.5-1.4,11.1-1.7,16.7c-0.1,3,1,4.1,3.9,4.7c3.5,0.7,7.2,1.3,9.7,4.1
	c1.5,1.7,2.1,1.5,3.3-0.1c11.3-16,23.7-31.1,36.4-46c11.1-12.9,22.8-25.2,35.4-36.5c3.3-3,6.6-6.1,9.9-9.1
	c-7.9,1.8-15.5,3.8-22.9,6.6c1.6-1.4,3.5-2.2,5.5-2.8c5.9-1.9,11.8-3.7,17.7-5.5c1.8-0.5,3.3-1.3,4.7-2.5
	c9.1-7.8,18.2-15.6,27.3-23.3c8.4-7.1,16.9-14,25.4-21c1.1-0.9,2.1-1.5,0.6-3c-5.1-5-11.1-9.1-15.5-15.1c0,3.2,0,6.4,0,9.6
	c-0.3,0-0.7,0-1-0.1c-1.7-27.6-1.8-55.1,5.3-82.3c-10.9,11.4-22.2,22.1-34.9,31.2c-15.5,11.2-32.6,19.4-50.4,26.1
	c-2.2,0.9-3.1,2-3.1,4.4c0.1,4.7-0.4,9.4-0.4,14.1C295.9,413.4,293.7,424.9,291.3,436.4z M391.7,389.7c-0.3,2.9-0.4,5-0.9,7.1
	c-1.4,6.3,0.4,11.3,5.6,15.2c1.6,1.2,2.7,1.6,4.4,0.3c3.6-2.8,7.4-5.4,11.1-8.1c4.2-3.1,4.2-3.1,2.3-7.7c3,2.7,3,5.2,0.1,7.6
	c-4.5,3.6-9.1,7.2-13.6,10.8c-18.3,14.7-36.3,29.8-54,45.1c-11.7,10.1-23.3,20.4-34.2,31.4c-15.5,15.9-29.6,33-43.4,50.4
	c-3.4,4.4-6.6,8.9-9.9,13.4c1.2,0.1,2-0.2,2.8-0.6c4.8-2.5,9.6-5,14.4-7.4c20.1-10.2,41-18.9,61.2-28.9c23.9-11.9,47-25.2,70.3-38.2
	c19.4-10.9,38-22.9,55.2-36.9c6.7-5.5,13.7-10.4,21.8-13.5c1.9-0.7,1.6-1.8,0.3-2.8c-0.8-0.6-1.8-0.9-2.7-1.2
	c-11.1-3.4-21.8-7.9-32.5-12.2c-7.3-2.9-13.9-6.6-18.5-13.2c-4.2-6-10.1-8.8-17.1-9.9c-2-0.3-4-0.6-5.9-1.2c-2.1-0.6-3.6,0-5.2,1.3
	c-3.3,2.8-6.5,5.9-9.4,9.9C393.2,396.6,392.6,393.6,391.7,389.7z M166.4,234.9c1.2,11.9,3.8,23.5,7.1,35c-1.9-2.7-2.2-6-4.5-9.4
	c1.5,10.4,4.7,19.5,8.4,28.5c-3.3-3.7-7.4-5.8-12.1-6.6c-2.2-0.4-4.4-0.4-6.5-0.9c-2.9-0.7-4,0.4-4.7,3.3
	c-2.5,11.6-3.2,23.3-3.6,35.1c-0.5,15.6,0.1,31.2,1.8,46.7c0.8,7,1.8,14,3.8,20.8c-0.9-8-1.4-16-1.5-24.1
	c-0.1-8.1,0.5-16.2,2.9-23.6c3.4,24,7.2,48.1,15.3,71.3c0.2,0,0.5-0.1,0.7-0.1c-0.5-3.9-0.9-7.7-1.4-11.6
	c3.3,7.2,6.6,14.2,13.1,19.4c1.1-4.4,1.2-4.7,4.8-7.3c2.3-1.7,4.9-3.2,7.1-5c4.9-3.9,12.4-5.9,10.4-15.2c2,2.2,3.6,3.9,5.1,5.6
	c-2.3-7.4-3.9-14.8-5.5-22.1c-1.6-7.4-3.4-14.8-4-22.4c-0.6-7.4-1.4-14.9-1.1-23.2c4.5,19.4,9.6,37.7,18,54.9
	c-2.8-8.2-3.1-16.7-4.1-25.6c0.5,0.6,0.8,0.8,0.8,1.1c1.4,6.6,4.7,12.5,7.1,18.8c0.6,1.6,1.3,2.6,2.6,0.5c0.7-1,1.8-1.6,2.9-2
	c4.9-1.7,9.8-3.4,14.7-5c2.8-0.9,5.6-1.6,8.6-2.5c-0.9-1.3-2-1.5-2.9-2c-5-2.5-10-5.1-15-7.5c-11-5.4-19.6-13.1-25.4-24.1
	c-4.7-8.9-7.6-18.4-10.9-27.8c-3.8-10.7-7.1-21.6-11.4-32.2C181.5,261.4,172.2,249.2,166.4,234.9z M193.3,783
	c0.8-11.4,3.7-22.2,6.9-33c7.3-24.2,15.9-48,25.7-71.3c4.1-9.8,8.1-19.8,9.6-30.5c2.7-18.7,3.2-37.6,3.6-56.4c0.1-5.3,0-5.3-5.1-6.4
	c-3.3-0.7-3.6-0.5-3.7,2.9c-0.2,8.5-0.4,17-0.5,25.5c-0.1,16-3.8,31-9.7,45.7c-0.2,0.6-0.3,1.3-1.4,1.7c2.6-7,4.6-13.7,6-20.7
	c3.4-17.3,3-35,3.6-52.5c0.1-1.9-0.9-2.6-2.6-3c-1.8-0.4-3.5-1.1-4.9,1.2c-6,9.7-11.4,19.7-15.2,30.5c-1.2,3.4-2.5,6.8-3.7,10.2
	c-0.3-0.4-0.4-0.7-0.3-1c3.9-14.3,8.5-28.3,17.3-40.6c1.3-1.8,1.9-3.7,0.5-6c-1.4,2.7-2.9,5.2-4.7,7.4c-13,16.5-25.5,33.3-33.4,53.1
	c-2,5.1-5.4,9.8-5.6,15.4c-0.6,18.9-0.4,37.8,3.3,56.4c2.9,14.9,6.2,29.7,10.5,44.3C192.2,764.7,192.7,773.8,193.3,783z
	 M108.6,753.2c2.1-0.7,3-1.9,4.1-2.9c9-7.8,17.7-15.8,26.5-23.8c13.5-12.2,25.1-25.7,32.7-42.3c0.9-1.9,1.3-3.7,1.3-5.8
	c-0.1-6.6,0-13.2-0.1-19.8c0-2.9,0.4-5.8,1.5-8.5c4.3-10.9,9-21.6,14.8-31.7c7.2-12.5,16.5-23.6,25-35.1c0.9-1.3,2-2.5,2.2-4.8
	c-13.5,7.6-25.5,16.5-36.7,26.5c6-6.5,11.8-13,19.2-17.9c4.1-2.7,8.2-5.4,12.3-8c1.4-0.9,1.5-1.3,0.1-2.5c-1.5-1.2-2.5-1.1-3.9-0.2
	c-6.5,4-13.1,7.7-19.5,11.7c-13.5,8.5-25.2,19.2-37.6,29.1c-2.5,2-4.3,4.4-5.8,7.2c-7.8,14.8-13.1,30.6-17.6,46.7
	c-6.2,22-10.8,44.4-14.7,67C111.5,743.1,109.7,747.9,108.6,753.2z M257.1,569.9c0.1,0.3,0.2,0.5,0.3,0.8c1.2-0.3,2.4-0.7,3.6-1
	c2.8-0.8,5.5-1.8,8.4-2.3c19.6-3.5,39.2-6.5,58.7-10.5c8-1.6,16.2-2.9,23.8-6c18.1-7.3,34.5-17.5,50.5-28.6c6-4.2,11.1-9.4,15.8-15
	c12.9-15.6,23.7-32.7,35.1-49.3c1.6-2.2,2.9-4.6,4.5-7.2c-1.6,0-2.4,0.9-3.2,1.5c-12.1,9.2-24.8,17.5-38,25.1c-3,1.7-6.3,3-8.6,5.8
	c-11.8,14.3-24.7,27.4-38,40.3c-0.5,0.5-0.9,1.2-2.1,1c11.4-13.1,23.5-25.2,34.3-38.5c-9.4,4.8-18.5,9.9-27.7,15
	c-16.7,9.2-33.5,18.2-50.9,26.1c-22.1,10.1-44.1,20.3-65.5,31.7c-1.2,0.6-2.3,1.2-3,2.4c-1.2,2-0.4,4,0.8,5.5
	c1.1,1.4,2.4-0.1,3.4-0.8c13.2-9.3,27.6-16.5,42.2-23.1c3.3-1.5,6.5-3,9.8-4.5c0.1,0.2,0.2,0.3,0.2,0.5c-5.6,3-11.2,6-16.8,8.9
	c10.1,1.1,19.9,0,29.7-0.9c-7.5,1.8-15.2,2.9-22.7,3.1c-9.3,0.2-17.6,2.5-25.3,7.7C270,562.1,263.5,565.9,257.1,569.9z M214.2,474.1
	c0.1,0.1,0.2,0.2,0.4,0.4c-1.7,1.8-3.3,3.6-5,5.4c-1.2,1.3-1.2,2.4,0.5,3.2c1.8,0.9,3.4,2.1,4.8,3.6c1.2,1.3,2.3,1.2,3.6,0.2
	c1.2-0.9,2.4-1.7,3.6-2.5c-4.2,5.5-4.1,5.5-0.7,11.3c1,1.6,1.9,1.8,3.3,0.9c0.5-0.3,1-1,2.4-0.3c-4.5,1.7-3.3,4.4-2,7.2
	c0.5,1.2,1.1,2.4,1.4,3.6c0.6,2.5,2,2.6,4,1.6c1.6-0.8,3.2-1.5,4.8-2.2c-1.8,1.7-3.7,2.9-5.6,4.1c-0.9,0.6-1.5,1.2-1.4,2.4
	c0.5,7.1,1.5,7.9,8.2,6.6c0.4-0.1,0.7-0.1,1.1-0.1c-0.8,0.7-1.7,1.1-2.6,1.4c-4.8,1.6-4.7,1.6-4.1,6.4c0.2,1.7,0.9,2,2.4,1.6
	c2.1-0.6,4.2-1.2,6.3-1.9c6.7-2.1,13.5-3.7,19.6-7.2c2.8-1.6,5.6-3.2,6.9-6.4c0.3-0.7,0.8-1.5,0.3-2.3c-0.6-0.8-1.5-0.2-2.2,0
	c-3.1,1-6.3,2.1-9.4,3.1c-3,1-6,2.1-9.1,3.1c4.1-2.2,8.4-3.8,12.7-5.4c10-3.8,10-3.8,11.9-14.1c0.4-2.3,0.3-3.2-2.4-2.3
	c-4.6,1.6-9.2,2.9-14,4.4c0.3-1,1-1,1.5-1.2c4.5-1.7,9-3.4,13.4-5.1c1.2-0.5,2.6-0.8,2.6-2.5c0.2-3.5,0.9-6.9,0.5-10.5
	c-0.4-3.3-0.8-3.5-3.9-2.3c-6.8,2.7-13.7,5.2-20.8,8c0.3-1.2,1-1.2,1.5-1.4c6.4-2.8,12.8-5.7,19.3-8.3c2.6-1.1,3.3-2.5,2.3-5.1
	c-1-2.6-2.4-5-3.8-7.4c-1.1-1.8-2.3-2.3-4.4-1.6c-7.3,2.5-14.4,5.4-20.8,9.8c-0.5,0.3-1,1.3-2,0.5c5.6-4.6,11.7-8.3,18.6-10.7
	c1.6-0.5,4.1-0.5,4.4-2c0.4-1.8-2.2-2.5-3.4-3.8c-4.4-4.6-8.8-5.4-14.4-1.7c-4.8,3.2-10.3,5.1-15.3,8.1c0.3-0.6,0.7-1,1.1-1.4
	c4.6-4.4,10.5-6.5,15.9-9.4c0.8-0.4,2.3-0.5,2.2-1.7c-0.1-1.1-1.5-1.1-2.4-1.6c-8.2-4.1-15.6-3.6-22.3,3.2c-1.9,2-4.3,3.4-6.5,5.1
	c4-4.2,7.8-8.5,13.1-11.9c-4-1.1-7.5-0.9-10.9-1.4c-2.2-0.3-4.1,0.4-5.8,1.8c-3.1,2.5-6.4,4.9-9.6,7.3c2.4-3.4,6.2-5.4,8.8-8.8
	c-5-0.7-7.2-0.3-10.6,2.3c-5.9,4.5-11.7,9-17.4,13.7c-3.9,3.3-7.1,7.3-10.3,11.2c-0.6,0.8-1.2,1.7,0.3,1.9c2.6,0.5,5.3,1.1,7.5-1.4
	c1.1-1.3,2.5-2.4,3.8-3.7c-0.7,1.8-1.8,3-2.8,4.4c-1,1.2-0.6,1.9,0.9,2.3c2.3,0.5,4.7,1,7,1.7c1.8,0.5,3.2,0.3,4.6-1.1
	c1.7-1.7,3.6-3.1,5.4-4.7c-1.1,1.9-2.5,3.4-3.9,4.9c-1.2,1.2-1,2,0.6,2.5c2.2,0.7,4.4,1.3,6.5,2.1c1.3,0.5,2.3,0.2,3.3-0.7
	C209.9,477.8,212.1,476,214.2,474.1z M326.8,239.9c-2.4-0.2-6,0.3-9.6,0.7c-2.4,0.3-3.8,1.5-4.8,3.8c-5.9,13.6,1.6,32.7,10.1,39.5
	c7,5.6,16.4,8.5,25.2-1.1c9.6-10.5,12.7-22.7,12.3-36.4c-0.1-2.9-1.7-4-4.5-4.6C346.5,240.1,337.3,239.9,326.8,239.9z M276.8,484.5
	c0-0.3-0.1-0.6-0.1-0.8c4.5-0.7,8.9-1.9,13.5-1.5c0.9,0.1,1.7,0.3,2.2-0.8c2.3-5-0.8-10.6-6.3-11.3c-2-0.2-4-0.3-6-0.5
	c-2.7-0.2-5.2-0.8-7.5-2.2c5.4-0.3,10.8-0.1,16.1,0.8c2.1,0.4,2.4-0.1,2.1-2c-1.3-7.7-4.1-10.3-11.9-10.5c-0.4,0-0.8,0-1.2,0
	c-6.7-0.3-13.3-1-18.5-6c0.1-0.1,0.2-0.2,0.3-0.1c0.6,0.2,1.3,0.5,1.9,0.8c5.6,1.9,11.1,4.1,17.1,1.7c0.4-0.2,1.1-0.5,1.3,0
	c0.8,2.6,3.1,1.4,4.8,1.9c2.8,0.9,3.1-0.5,2.5-2.8c-0.6-2.5-1.3-5-1.8-7.6c-0.6-3.3-2.6-5-5.8-5.5c-1.9-0.3-3.8-0.3-5.7,0
	c-7.8,1.3-15.6,2.6-23.3,4c-2.7,0.5-5.3,1.3-7.8,2.7c0.6,1,1.4,1,2.1,1.3c5.5,1.9,10.6,4.7,15.2,8.4c9.1,7.2,14,16.4,14,28.1
	c0,6.5-0.9,12.7-2.5,19c-0.3,1.1-1.2,2.5-0.1,3.3c1,0.7,2-0.6,2.9-1.1c2.1-1.3,4.2-2.5,6.8-3.5c-0.5,2.5-6.8,3.7-0.6,6.9
	c-4.6-1.9-7.9-0.8-10.8,2.6c6.9,2,14.3,0.5,18.5-5.2c0.9-1.2,1.7-2.5,2.7-3.6c3.6-4.3,3.3-8.9,1.6-13.8c-0.7-1.9-1.8-2.7-3.8-2.7
	C284.7,484.5,280.7,484.5,276.8,484.5z M288.4,406.8c-2.7,3.5-5.2,7.1-7.6,11.7c3.5-1.8,6-3.6,8.7-5.3c2.7-1.7,4.1-3.9,4.1-7.1
	c0-2.6,0-5.2,0.2-7.8c0.2-2.5-0.6-2.9-2.9-2c-9.4,3.8-18.2,8.7-26.4,14.6c-4.7,3.4-9,7.1-13.4,11.2c1.1-1.8,1-2.4-1.1-2
	c-5.7,1.3-11.6,2.1-17.5,2.6c-1.4,0.1-2.2,0.8-2.3,2.2c-0.5,5.1-1,10.1-1.1,15.2c0,1.4,0.6,2.3,2,2.6c3.4,0.7,6.8,1.1,10.3-0.1
	c7.9-2.7,15.4-6.1,22.9-9.5c5.4-2.4,9.2-5.7,11.7-11.1C278.8,416.1,282.7,410.7,288.4,406.8z M332.7,174c0.1,0.9,0.2,1.7,0.4,2.6
	c1.6,10.1,3.2,20.1,4,30.3c0.5,7,0.4,14,0.4,21c0,2.4,0.6,3.6,3.3,3.7c4.4,0.2,8.7,1,13.1,1.4c9,0.8,8,2.3,6.6-6.9
	c-3.2-21.3-9.6-41.8-17.5-61.9c-2.5-6.4-5.1-12.7-8.8-18.6c3.4,12.3,7.3,24.4,9.1,37.1c1.7,12.6,2.1,25.3,1.1,38
	C340.8,204.9,338.2,189.1,332.7,174z M240.2,290.7c-0.9-8.2-2.2-16.2-8.8-22.1c-2-1.8-4.1-3.5-6.2-5.1c-5.9-4.7-12.3-8.5-19.8-10.1
	c-2.9-0.6-3.6,0.1-3,2.8c0.6,2.7,1.2,5.5,1.9,8.2c3.4,12,11.2,21.2,19.3,30.2c2.1,2.4,5.1,3.9,8.2,4.8c4.2,1.2,8-1.4,8.4-5.7
	C240.3,292.7,240.2,291.7,240.2,290.7z M198.6,427.6c-5.3,0.4-10.2,2.1-14.2,5.9c-4.7,4.4-8.3,9.7-11.6,15.1
	c-4.2,7-8.2,14.2-10.5,22.1c-0.3,0.9-1.2,2.1,0.3,2.8c1.8,0.9,8-0.6,9.4-2.3c4.4-5.3,8.8-10.6,14.2-14.9c3.5-2.8,7-5.6,10.6-8.3
	c1.5-1.2,2.9-2.4,2.9-4.6c0.1-4.3,1.3-8.5,2.9-12.5c0.9-2.1,0.5-2.9-1.7-3.1C200.1,427.7,199.4,427.6,198.6,427.6z M240.8,584.2
	c1.8-0.2,3.6,0.6,5.1-1c2.1-2.1,4.4-4.1,6.3-6.3c1.8-2.2,2.4-5,1.6-7.6c-0.8-2.9-1.7-5.7-2.4-8.6c-0.7-2.8-2.5-3.8-5.3-3.6
	c-1.7,0.2-3,0.9-4.3,2c-6.9,5.6-13.6,11.4-18,19.4c-1.6,2.8-1.2,4.2,2,4.2C230.9,582.8,235.9,582.9,240.8,584.2z M184.1,548.7
	c0.2,0.7,0.2,1,0.4,1.2c7.6,7.9,17.2,10.7,27.8,11.2c1.1,0.1,1.9-0.5,2.4-1.4c2.7-4.6,7.1-6.2,11.9-6.9c1.3-0.2,2.7-0.3,4.7-1.4
	c-2.9-2.8-5.8-5.2-8.4-7.9c-1.5-1.6-2.9-1.9-5-1.1c-6.5,2.4-13.2,4.5-20.1,5.6C193.3,548.6,188.8,548.8,184.1,548.7z M434.9,154.9
	c-1,0.3-1.2,1-1.5,1.5c-5.9,11.6-13.6,22.1-21.7,32.2c-3,3.7-4.4,7-3.5,11.5c0.2,0.9-0.3,2,0.6,2.5c1.1,0.7,1.8-0.4,2.6-1
	c7.9-6,14.8-13,21.8-20c1-1,1.4-2.2,1.5-3.5C435.4,170.4,435.6,162.8,434.9,154.9z M242.7,555.5c-0.3-0.3-0.4-0.4-0.6-0.5
	c-7.8-2.6-15.2-0.1-22.3,2.7c-4.3,1.7-4.3,6.9-6.2,10.5c-0.2,0.3-0.3,0.7-0.4,1.1c-1.8,4.8-1.3,5.7,3.7,6.6c6.6,1.2,6.7,1.2,7.3-5.6
	c0.2-2.6,0.9-5,2.2-7.2c0,2.4-0.7,4.7,0.2,7.6C231.3,564.7,237.1,560.3,242.7,555.5z M436,139.1c-8.3,14.4-15.8,28.9-27,41
	c-2.1,2.2-2.6,4.5-1.9,7.3c0.2,0.7-0.1,1.6,0.7,1.8c0.9,0.3,1.4-0.6,1.9-1.2c2.3-3,4.6-6,6.8-9.1c7.9-10.9,15.6-22,19.9-35
	C436.8,142.5,437.5,140.9,436,139.1z M200.8,444.4c3.8-2.8,8.1-3.1,12.4-3c1.3,0,2.8,0.2,3.1-1.6c0.8-4.5,1.5-9,2.2-13.5
	c0.1-0.8-0.2-1.3-1-1.6c-3.1-0.9-9.9,1.3-11.5,4.2C203.3,433.6,202.1,439,200.8,444.4z M408.8,209c0.2,0.8-0.5,2,0.6,2.4
	c0.8,0.3,1.3-0.7,1.9-1.2c6.7-5.6,13.7-10.9,19.7-17.4c3.6-3.9,6.7-8.1,9.8-12.4c0.7-1,1.3-2.3,0-3.2c-1.3-0.9-1.6,0.7-2.2,1.4
	c-8.1,9.4-17.1,17.9-26.9,25.4C410,205.2,408.3,206.4,408.8,209z M237.2,536.5c0.4-2-1-3.2-2.3-4.2c-1.9-1.5-3.2-1.1-3.5,1.3
	c-0.2,1.6-0.9,2.6-2.2,3.3c-1.5,0.9-2.9,1.8-4.4,2.5c-1.5,0.8-1.6,1.5-0.4,2.7c3,2.9,5.9,5.9,8.9,8.9c0.6,0.6,1.3,1.4,2.3,1
	c1.1-0.4,0.9-1.5,0.9-2.3C236.8,545.2,236.4,540.8,237.2,536.5z M223,441.9c2.3,0.5,3.6-0.5,3.7-3.5c0.1-3.7,0.7-7.4,0.9-11
	c0.1-1.4,1-3.4-1.5-3.9c-2.5-0.5-5.1,0.9-5.5,3.1c-0.7,3.6-1.4,7.2-1.9,10.9C218,442.2,218.6,441.8,223,441.9z M383.9,383.4
	c-0.5,0-1.2,0.1-1.3,0.8c-0.6,3-2.3,5.9-1.5,9c1,3.9,3,7.4,6.2,10c0.5,0.4,1,1.3,1.7,0.8c0.7-0.4,0.4-1.3,0.2-1.9
	c-1.6-5.3-2.5-10.7-2.7-16.2C386.4,384.4,385.6,383.6,383.9,383.4z M135.9,378.1c-0.4-4.2-0.9-8.3-1-12.5
	c-0.8-26.1,4.1-51.3,12.5-75.8c0.3-1,0.9-1.9-0.3-3.5C138.3,316.7,130.1,346.6,135.9,378.1z M254.6,440.2c6.5-0.4,12.5-2.5,18.7-4
	c1.5-0.4,1.6-1.2,1-2.5c-0.9-1.8-2.2-2.2-3.9-1.3C265.1,435,259.9,437.6,254.6,440.2z M404.5,216c-0.6,5-1.7,10-0.7,14.9
	c0.2,0.8,0.1,2.1,1.3,2c1.4-0.2,1.1-1.5,1-2.4C405.6,225.6,405.1,220.8,404.5,216z M398.2,790.2c-3.1,11.2-6.2,22.2-9.2,33.2
	c-0.2,0-0.4-0.1-0.6-0.1c0.9-4.2,1.8-8.5,2.7-12.7c8.1-36.8,17.7-73.2,27.1-109.7c0.5-2.1,0.9-4.3,0.8-6.5
	c-0.8-14-1.5-27.9-1.3-41.9c0-1.3-0.4-2.6-0.7-3.8c-1.7-6.9-3.3-13.8-5-20.7c-1.7-6.8-0.4-13.5,0.6-20.2
	c4.3-30.6,12.1-60.3,24.6-88.7c8.9-20.1,18.3-40,31.5-57.8c4-5.3,8.6-10.2,12.9-15.3c0.2,0.2,0.4,0.3,0.6,0.5
	c-1.7,2.1-3.3,4.1-4.9,6.2c-12.5,16.1-22.3,33.9-31.2,52.1c-16.2,33.3-26.5,68.4-31.7,105.2c-1.6,11.4,0.4,22.2,3.9,33.6
	c1-5.5,1.8-10.5,2.8-15.3c2.7-13,7.9-24.9,15.2-35.9c9.5-14.2,18.8-28.5,28.3-42.7c6.2-9.3,10.9-19.3,13.8-30.1
	c0.2-0.7,0.2-1.6,1.2-2.3c-2.1,11.2-5.3,21.7-11.6,31.1c-10.9,16.3-21.5,32.7-32.2,49.1c-8.8,13.4-13.1,28.5-14.7,44.2
	c-1.8,17.1-1,34.3,0.4,51.5c0.7,8.2,1.7,16.4,2.9,24.7c3.6-15.2,7.2-30.4,10.8-45.6c0.2,0,0.4,0.1,0.6,0.1c-0.3,1.3-0.5,2.7-0.8,4
	c-3.5,20.7-8.5,41.1-12.5,61.7c-1.5,7.7-2.8,15.5-3.3,23.4c-0.5,7.1,0.6,14.2,2,21.1c1.9,9.6,1.7,19.3,2,28.9
	c0.3,10.7,0.5,21.4,0.9,32c0.7,16,2.5,31.8,4.9,47.6c3,19.2,6.5,38.2,11.6,56.9c0.2,0.9,1,2.2-0.2,2.6c-1.6,0.5-1.5-1.2-1.8-2.2
	c-4.4-15.1-7.2-30.5-9.9-46c-1.2-6.8-2.1-13.6-3.1-20.4c-0.2-1.5-1-2.8-1.6-4.2c-5.2-10-11.1-19.6-15.1-30.3
	c-2.1-5.6-3.1-11.3-1.5-17.3c0.9-3.3,0.4-6.7,0.1-10.1C406.4,809.7,402.9,799.8,398.2,790.2z M419.7,704.1c-0.1,0.3-0.2,0.5-0.3,0.8
	c-6.2,24.5-12.4,49-18.4,73.5c-1.3,5.3-1.1,10.7,1.4,15.8c2.9,6,5.1,12.2,6.1,18.7c1,6.6,2.7,13.2,0.6,19.9
	c-1.1,3.6-0.4,7.1,0.6,10.6c2.3,7.9,6.2,15.1,10.1,22.3c1.3,2.4,2.2,5,4.6,7.5c-0.6-5.3-1.3-10.1-1.6-14.8c-1.2-18-2-36.1-1.9-54.1
	c0-6.6-0.5-13.1-1.6-19.7c-1-6.1-1.9-12.2-2.1-18.4c-0.3-8.8,1.1-17.3,2.8-25.8C422.2,728.2,421.6,716.1,419.7,704.1z M408.2,239.2
	c0.4-0.9,0.8-1.9,1.1-2.8c2.9-5.3,5.3-10.8,10.1-14.7c3.2-2.5,6.8-4.5,11-4.6c2.4-0.1,4.2,1.2,5.4,3.2c3.2,5.1,3.8,10.9,3.9,16.7
	c0,2.7-0.4,5.3-1,8c-0.4-5.1-0.9-10.1-1.3-15.2c-0.2-2.5-1.1-4.9-2.2-7.1c-1.9-3.9-3.9-4.9-8-3.3c-5.3,2.1-10,5-12.6,10.5
	c-1.1,2.4-2.4,4.7-3.3,7.3c3.6-2.7,6.8-5.9,11.6-6.4c-2.6,1.9-5.3,3.9-7.9,5.8c-2.5,1.8-4,4.4-5.3,7.2c-0.7,1.4-0.3,2,1.3,2
	c2.1,0,4.2,0,6.3,0c3,0.1,4.3,1.4,4.6,4.4c0.3,2.9-0.8,5.3-2.2,7.6c-4.3,6.7-7.9,13.7-10.5,21.1c-0.3,1-1.3,2.2-0.3,3
	c0.9,0.8,2.1-0.1,3.1-0.4c1.4-0.5,2.9-1.1,3.6-2.5c3.5-7.4,9.6-12.7,14.2-19.2c1.8-2.4,3.1-5.1,4.8-7.6c-1.8,4.5-3.3,9.2-6.7,12.9
	c-4,4.4-7.8,8.8-10.5,14.1c-1.6,3.1-4.5,4.1-7.6,4.7c-2.6,0.5-3.9-0.8-3-3.4c1.3-3.8,2.7-7.5,4.5-11.1c3.1-6.2,2.5-12-3-17.1
	c-2.2-2-2.4-4.5-1.8-7.2C407,243.2,407.7,241.2,408.2,239.2z M415.3,261.8c2.3-3.2,4.3-6,5.1-9.3c0.5-1.9,0.5-4.2-1.9-4.6
	c-2.6-0.4-5.4-0.3-8-0.1c-1.9,0.2-2.7,1.7-1,3.1C412.7,253.6,413.9,257.3,415.3,261.8z M350.7,758.6c0.7-0.3,0.9-0.3,1-0.5
	c0.5-0.6,0.9-1.3,1.4-2c11.3-16,19.6-33.6,26.8-51.7c13.2-33,23-66.8,23.4-102.7c0-1.7,0-3.5,0-5.2
	C399.4,654.9,380.1,708.1,350.7,758.6z M295.4,943.1c22.8-11.5,71.9-65.5,82.9-93.7C356.2,885.1,328.9,916.2,295.4,943.1z
	 M262.6,17.4c36.6-4.6,72-1.8,104.5,17.6C340,13,293.2,9.6,262.6,17.4z M172,65.2c18.1-21.3,41.7-34.5,66.5-45.9
	C211.8,28,188.7,41.9,172,65.2z M153.9,162.5c-6.5,26.5-10.4,53.1-3.7,80.2C147.3,215.8,149.2,189.1,153.9,162.5z M321,52.3
	c-16.6-19.2-38.1-29.1-62.8-32.6C281.7,25.7,303,35.8,321,52.3z M433.2,272.6c13-18.3,22.4-58.6,22-78.1
	C452.5,221.8,445.5,247.9,433.2,272.6z M502.4,612.3c-3.9,22.4-10.5,43.5-17.8,64.3C491.7,665.3,503.8,621.6,502.4,612.3z
	 M313.7,114.1c-4-13.4-9.3-26.2-18.3-37.1C301.9,89.1,308,101.5,313.7,114.1z M167.6,346.5c-0.7-18.9-2.1-37.7-1.1-56.6
	C162.7,308.8,165,327.7,167.6,346.5z"/>
</svg>
